<svg xmlns="http://www.w3.org/2000/svg" viewBox="0 0 256 256" role="img" aria-hidden="true">
  <path d="M56 208c-8.8 0-16-7.2-16-16V64c0-8.8 7.2-16 16-16h88c4.4 0 8 3.6 8 8s-3.6 8-8 8H56v128h128v-88c0-4.4 3.6-8 8-8s8 3.6 8 8v88c0 8.8-7.2 16-16 16H56z" fill="#ffffff"/>
  <path d="M176.9 52.7c6.2-6.2 16.4-6.2 22.6 0l14.8 14.8c6.2 6.2 6.2 16.4 0 22.6l-86.6 86.6c-1.4 1.4-3.1 2.4-5 2.9l-36.4 9.6c-2.6.7-5.4 0-7.4-2s-2.7-4.8-2-7.4l9.6-36.4c.5-1.9 1.5-3.6 2.9-5l86.6-86.6zm11.3 11.3-82.2 82.2-6 22.8 22.8-6L205 80.8c1.6-1.6 1.6-4.1 0-5.7l-14.8-14.8c-1.6-1.6-4.1-1.6-5.7 0z" fill="#ffffff"/>
</svg>
