<svg xmlns="http://www.w3.org/2000/svg" width="24" height="24" viewBox="0 0 24 24" fill="none" stroke="#ffffff" stroke-width="2" stroke-linecap="round" stroke-linejoin="round">
  <path d="M6 8h12a3 3 0 0 1 2.9 3.8l-1 4A3 3 0 0 1 17 18h-2.1a2 2 0 0 1-1.6-.8L12 15.8l-1.3 1.4a2 2 0 0 1-1.6.8H7a3 3 0 0 1-2.9-2.2l-1-4A3 3 0 0 1 6 8z" />
  <path d="M8 11v3" />
  <path d="M6.5 12.5h3" />
  <circle cx="15.5" cy="12" r="0.8" fill="#ffffff" stroke="none" />
  <circle cx="18" cy="10.5" r="0.8" fill="#ffffff" stroke="none" />
</svg>
