<svg xmlns="http://www.w3.org/2000/svg" width="24" height="24" viewBox="0 0 24 24" fill="none" stroke="#ffffff" stroke-width="2" stroke-linecap="round" stroke-linejoin="round">
  <path d="M10 2.5h4v2.8c1 .2 1.9.6 2.8 1.1L18.8 4l2.8 2.8-2.3 2.1c.5.9.9 1.8 1.1 2.8h3.1v4h-3.1c-.2 1-.6 1.9-1.1 2.8l2.3 2.1-2.8 2.8-2.1-2.3c-.9.5-1.8.9-2.8 1.1v3.1h-4v-3.1c-1-.2-1.9-.6-2.8-1.1l-2.1 2.3-2.8-2.8 2.3-2.1c-.5-.9-.9-1.8-1.1-2.8H.5v-4h3.1c.2-1 .6-1.9 1.1-2.8L2.4 6.8 5.2 4l2.1 2.3c.9-.5 1.8-.9 2.8-1.1z" />
  <circle cx="12" cy="11" r="2.5" />
  <path d="M7.5 18.5c1.2-1.8 3-2.8 4.5-2.8s3.3 1 4.5 2.8" />
</svg>
